HIERARCHY
ROOT pelvis
{
  OFFSET 0 100 0
  CHANNELS 6 Xposition Yposition Zposition Zrotation Xrotation Yrotation
  JOINT pelvis_right_femur
  {
    OFFSET -10.78128 -3.44521 -0.5502486
    CHANNELS 3 Zrotation Xrotation Yrotation
    JOINT right_femur_tibia
    {
      OFFSET -0.8047443 -44.0398 -0.1307829
      CHANNELS 3 Zrotation Xrotation Yrotation
      JOINT right_tibia_foot
      {
        OFFSET 3.006224 -47.83518 -5
        CHANNELS 3 Zrotation Xrotation Yrotation
        End Site
        {
          OFFSET 0 -5 15
        }
      }
    }
  }
  JOINT pelvis_left_femur
  {
    OFFSET 10.78128 -3.44521 -0.5502486
    CHANNELS 3 Zrotation Xrotation Yrotation
    JOINT left_femur_tibia
    {
      OFFSET 0.8047443 -44.0398 -0.1307829
      CHANNELS 3 Zrotation Xrotation Yrotation
      JOINT left_tibia_foot
      {
        OFFSET -4.370144 -48.10324 -4.275266
        CHANNELS 3 Zrotation Xrotation Yrotation
        End Site
        {
          OFFSET 0 -5 15
        }
      }
    }
  }
  JOINT pelvis_spine1
  {
    OFFSET 0 6.468898 -3.129235
    CHANNELS 3 Zrotation Xrotation Yrotation
    JOINT spine1
    {
      OFFSET 0 23.15396 4.99043
      CHANNELS 3 Zrotation Xrotation Yrotation
      JOINT spine2
      {
        OFFSET 0 20.79997 -5.064912
        CHANNELS 3 Zrotation Xrotation Yrotation
        JOINT neck
        {
          OFFSET 0 14.38658 9.616178
          CHANNELS 3 Zrotation Xrotation Yrotation
          End Site
          {
            OFFSET 0 20 0
          }
        }
      }
      JOINT right_manubrium
      {
        OFFSET -5.722621 16.35077 3.967754
        CHANNELS 3 Zrotation Xrotation Yrotation
        JOINT right_clavicle
        {
          OFFSET -13.16364 1.694482 -4.693211
          CHANNELS 3 Zrotation Xrotation Yrotation
          JOINT right_humerus
          {
            OFFSET -28.5034 -0.3100689 -2.792744
            CHANNELS 3 Zrotation Xrotation Yrotation
            JOINT right_radius
            {
              OFFSET -25.15693 0.02248979 -1.271978
              CHANNELS 3 Zrotation Xrotation Yrotation
              End Site
              {
                OFFSET -15 0 0
              }
            }
          }
        }
      }
      JOINT left_manubrium
      {
        OFFSET 5.722621 16.35077 3.967754
        CHANNELS 3 Zrotation Xrotation Yrotation
        JOINT left_clavicle
        {
          OFFSET 13.16364 1.694482 -4.693211
          CHANNELS 3 Zrotation Xrotation Yrotation
          JOINT left_humerus
          {
            OFFSET 29.39168 -1.063119 -2.237045
            CHANNELS 3 Zrotation Xrotation Yrotation
            JOINT left_radius
            {
              OFFSET 24.59957 -0.9528479 0.9047498
              CHANNELS 3 Zrotation Xrotation Yrotation
              End Site
              {
                OFFSET 15 -0 -0
              }
            }
          }
        }
      }
    }
  }
}
MOTION
Frames: 6
Frame Time: 0.0416666666667
18.22473 104.2088 230.493 1.343708 -7.38625 -1.154139 0.2842184 12.4605 6.715784 -3.091678e-09 39.09869 2.053789e-09 0.6278263 -10.15733 -4.203026 -3.240011 -15.9904 -9.119183 3.053911e-10 22.58264 1.454888e-10 -4.410789 -9.061764 20.95495 -2.358909 0.006533987 7.365751 -0.9402809 9.864905 -3.313713 2.457968 23.1119 4.961486 1.740664 -17.53227 7.876918 3.251361 -20.13954 10.63567 81.53317 27.82283 -6.814713 -3.995973e-10 4.431219e-12 20.96335 -22.77682 12.46043 12.79508 3.559492 -14.95433 -2.775924 -93.91165 24.41776 24.98096 1.902201e-11 6.196077e-12 -7.231718 -0.1748082 9.061169 15.24362
19.00788 104.7587 236.2562 1.609839 -7.785904 -0.8289324 -0.3444234 9.852358 6.879989 -3.352692e-09 43.67627 2.378332e-09 1.802839 -8.459104 -5.145991 -4.02407 -12.55319 -9.609533 7.64569e-10 21.61236 4.421471e-10 -4.788545 -10.42664 20.72183 -2.713374 0.1907533 6.826536 -1.046714 9.589069 -3.402635 2.639117 23.37927 5.141984 1.70067 -16.94914 8.262412 3.516245 -19.00246 10.33594 82.18694 27.79342 -7.584292 -4.723116e-10 -4.566093e-11 19.80597 -23.14601 12.62078 12.72094 3.671935 -14.74737 -2.831839 -92.86522 25.2652 22.65872 6.07226e-11 -1.23509e-12 -7.893699 -0.6041147 8.463323 15.84979
19.78275 105.4553 242.0916 1.885312 -8.031561 -0.2873474 -0.8671913 6.123905 6.880493 -3.540826e-09 48.11336 2.660755e-09 2.792902 -6.598429 -6.128762 -4.913767 -8.145924 -10.31131 1.24642e-09 20.12261 8.079668e-10 -4.947619 -12.17283 20.45998 -3.090711 0.3183315 6.15841 -1.067155 9.336013 -3.647991 2.786099 23.672 5.391651 1.700537 -16.55895 8.690937 3.806648 -17.84037 10.05931 83.27753 27.90669 -8.856219 -5.314251e-10 -9.687154e-11 18.39444 -23.28467 12.73769 12.49271 3.884734 -14.79527 -2.933302 -91.83747 26.09886 20.07428 1.030725e-10 -7.715625e-12 -9.030166 -0.8224633 8.094558 16.20225
20.53523 106.2265 247.8542 2.051348 -7.844655 0.3918524 -1.028143 1.491913 6.61545 -3.354286e-09 50.37052 2.6059e-09 3.145287 -5.043067 -6.808658 -5.659623 -3.337413 -11.08914 1.594304e-09 18.36515 1.131084e-09 -4.717993 -13.90433 20.05301 -3.356536 0.3146536 5.430965 -0.9097083 9.112024 -4.075947 2.812365 23.72608 5.649329 1.751423 -16.50729 8.991758 4.033234 -16.81266 9.828932 84.059 28.16188 -10.43062 -5.440227e-10 -1.293884e-10 16.78597 -22.73762 12.69435 11.91916 4.1703 -15.15893 -3.043462 -90.36649 26.68688 17.50299 1.329329e-10 -9.552247e-12 -10.65275 -0.6333944 8.145654 15.93513
21.25872 106.972 253.4812 2.104744 -7.44181 1.150592 -0.8961281 -3.275281 6.128193 -2.831332e-09 50.6471 2.243162e-09 2.84769 -3.765426 -7.156073 -6.173631 1.21966 -11.78633 1.802291e-09 16.77689 1.381624e-09 -4.195756 -15.42837 19.6284 -3.487065 0.2017442 4.748886 -0.6468261 9.021342 -4.603988 2.754647 23.67288 5.868969 1.843419 -16.74923 9.161208 4.113683 -16.10147 9.70443 84.94653 28.38512 -12.20657 -5.145098e-10 -1.504386e-10 15.23216 -21.87908 12.53429 11.19611 4.506996 -15.85042 -3.216542 -89.03015 26.86568 15.34794 1.494704e-10 -1.049288e-11 -12.50241 -0.03800182 8.60397 15.09647
21.93473 107.6093 258.8731 2.000758 -6.754396 1.902725 -0.4542349 -7.963602 5.457575 -1.995793e-09 48.42891 1.595531e-09 1.835527 -2.913858 -7.062581 -6.405223 5.244557 -12.36864 1.824444e-09 15.40267 1.51637e-09 -3.372608 -16.57286 19.12008 -3.448947 -0.02983298 4.135457 -0.2666482 9.020799 -5.202716 2.594307 23.38114 6.017196 1.964076 -17.24682 9.135754 4.027313 -15.69133 9.657473 85.40719 28.56293 -13.95398 -4.371051e-10 -1.55435e-10 13.74961 -20.56525 12.20257 10.27239 4.85723 -16.78103 -3.413289 -87.46617 26.60427 13.63428 1.496071e-10 -8.400604e-12 -14.47114 0.9715333 9.41953 13.62733
